<svg width="100" height="100" viewBox="0 0 100 100" fill="none" xmlns="http://www.w3.org/2000/svg">
<circle cx="50" cy="50" r="50" fill="white" fill-opacity="0.2"/>
<circle cx="50" cy="50" r="48" stroke="white" stroke-opacity="0.8" stroke-width="4"/>
<path d="M69.0985 44.6421C68.9425 45.449 68.6876 46.1059 68.3366 46.6128C67.9857 47.1197 67.6887 47.3567 67.4458 47.3237C67.1998 47.2877 66.9808 47.1137 66.7889 46.7988C66.5969 46.4838 66.4469 45.9049 66.3419 45.065C66.168 43.6972 65.721 42.6894 65.0042 42.0415C64.2873 41.3936 63.1774 40.9287 61.6717 40.6497C60.0969 40.3348 58.7081 39.6959 57.4993 38.73C56.2935 37.7672 55.2857 36.8643 54.4818 36.0214C53.7139 35.2835 53.12 35.0226 52.7001 35.2326C52.2801 35.4425 52.0702 35.8295 52.0702 36.3904V38.652L52.0192 61.7814V64.778C52.0552 65.6178 51.9232 66.5567 51.6262 67.5915C51.3293 68.6264 50.7684 69.5982 49.9465 70.5101C49.1246 71.4219 48.0298 72.2018 46.668 72.8497C45.3032 73.4976 43.6055 73.8756 41.5778 73.9805C39.5141 74.0855 37.6514 73.7166 35.9897 72.8767C34.3279 72.0368 33.0411 70.975 32.1323 69.6972C31.2234 68.4194 30.7765 67.0156 30.7945 65.4919C30.8125 63.9681 31.4664 62.5403 32.7622 61.2085C34.058 59.8767 35.4557 58.9469 36.9615 58.422C38.4643 57.897 39.9161 57.6061 41.3168 57.5551C42.7176 57.5041 43.9654 57.6001 45.0692 57.843C46.1701 58.089 46.983 58.317 47.5079 58.5269C47.5079 58.5269 47.5259 34.8546 47.5619 29.6684C47.5619 28.6516 47.8258 27.8207 48.3477 27.1698C48.8727 26.5219 49.5716 26.144 50.4474 26.039C51.1793 25.928 51.7822 26.075 52.2531 26.4799C52.7271 26.8819 53.207 27.4428 53.6959 28.1627C54.1878 28.8795 54.7907 29.6954 55.5076 30.6073C56.2245 31.5191 57.1964 32.413 58.4202 33.2889C59.47 34.0957 60.3879 34.6716 61.1767 35.0226C61.9626 35.3735 62.6975 35.6975 63.3814 35.9944C64.0623 36.2914 64.7372 36.6513 65.4031 37.0713C66.069 37.4912 66.8039 38.1751 67.6077 39.12C68.4116 40.0318 68.9035 40.9767 69.0775 41.9575C69.2485 42.9414 69.2575 43.8352 69.0985 44.6421Z" fill="white"/>
</svg>
